<svg id="c-icon-logo" xmlns="http://www.w3.org/2000/svg" height="64" width="212" viewBox="0 0 191.35 58.56">
  <title>Capsule8</title>
  <path id="c-icon-logo__border" d="M191.33,58.56H0L0,0H191.35Z" fill="#565759"></path>
  <path id="c-icon-logo__bg" d="M4.06,54.5H187.29V4.05H4.06Z" fill="#fff"></path>
  <path id="c-icon-logo__c" d="M27.22,22.53a6.13,6.13,0,0,0,0,12.27,7.69,7.69,0,0,0,5.18-2.34l2.65,2.88A11.67,11.67,0,0,1,27,38.9,10.12,10.12,0,0,1,16.55,28.71c0-5.75,4.58-10.08,10.62-10.08A11.34,11.34,0,0,1,35,21.93L32.4,25.12a7.21,7.21,0,0,0-5.18-2.59" fill="#565759"></path>
  <path id="c-icon-logo__a" d="M50.13,31.21,47,23.47l-3.16,7.74Zm1.45,3.62H42.36L40.79,38.7H36.15l8.65-19.93h4.64L58,38.7H53.15Z" fill="#565759"></path>
  <path id="c-icon-logo__p" d="M72.89,25.83c0-2.22-1.42-3.33-3.93-3.33H65.24v6.75H69c2.5,0,3.93-1.14,3.93-3.42m4.27-.14c0,4.64-2.9,7.32-8,7.32h-4V38.7h-4.5V18.77h8.45c5.07,0,8,2.5,8,6.92" fill="#565759"></path>
  <path id="c-icon-logo__s" d="M87.16,22.42c-1.51,0-2.53.54-2.53,1.62,0,3.67,10.62,1.62,10.59,8.8,0,3.9-3.39,6-7.8,6a14,14,0,0,1-8.8-3.16L80.41,32a11.8,11.8,0,0,0,7.06,3c1.85,0,3-.68,3-1.91,0-3.76-10.62-1.57-10.62-8.62,0-3.62,3.1-5.89,7.71-5.89a14.25,14.25,0,0,1,7.57,2.16l-1.74,3.73a13.9,13.9,0,0,0-6.2-2.05" fill="#565759"></path>
  <path id="c-icon-logo__u" d="M108.06,35c2.68,0,4.44-1.74,4.44-4.61V18.77H117V30.36c0,5.27-3.44,8.54-8.94,8.54S99,35.62,99,30.36V18.77h4.5V30.36A4.3,4.3,0,0,0,108.06,35" fill="#565759"></path>
  <polygon id="c-icon-logo__l" points="126.51 18.77 126.51 34.77 135.05 34.77 135.05 38.7 122.01 38.7 122.01 18.77 126.51 18.77" fill="#565759"></polygon>
  <polygon id="c-icon-logo__e" points="152.9 18.77 152.9 22.5 142.22 22.5 142.22 26.83 151.82 26.83 151.82 30.56 142.22 30.56 142.22 34.97 153.21 34.97 153.21 38.7 137.72 38.7 137.72 18.77 152.9 18.77" fill="#565759"></polygon>
  <path id="c-icon-logo__8" d="M162.83,23.81c0,1.64,1.25,2.58,3.44,2.58s3.37-.94,3.37-2.58-1.22-2.61-3.37-2.61-3.44.94-3.44,2.61m-.58,9.12c0,1.95,1.43,3,4,3s4-1.06,4-3-1.46-3-4-3-4,1.06-4,2.92m11.46-9.39A5,5,0,0,1,170.88,28a5.81,5.81,0,0,1,3.92,5.41c0,3.8-3.35,6.2-8.54,6.2s-8.57-2.37-8.57-6.14A5.89,5.89,0,0,1,161.85,28a5.24,5.24,0,0,1-3.07-4.56c0-3.41,2.92-5.53,7.45-5.53s7.48,2.19,7.48,5.66" fill="#009bbe"></path>
</svg>
